<?xml version="1.0" standalone="no"?>
<!DOCTYPE svg PUBLIC "-//W3C//DTD SVG 20010904//EN"
 "http://www.w3.org/TR/2001/REC-SVG-20010904/DTD/svg10.dtd">
<svg version="1.0" xmlns="http://www.w3.org/2000/svg"
 width="1200.000000pt" height="798.000000pt" viewBox="0 0 1200.000000 798.000000"
 preserveAspectRatio="xMidYMid meet">
<metadata>
Created by potrace 1.16, written by Peter Selinger 2001-2019
</metadata>
<g transform="translate(0.000000,798.000000) scale(0.100000,-0.100000)"
fill="#000000" stroke="none">
<path d="M420 7809 c-116 -23 -236 -124 -282 -236 l-23 -58 0 -3490 0 -3490
23 -58 c30 -74 116 -168 185 -202 29 -14 85 -29 127 -35 48 -6 1596 -9 4225
-10 3554 0 4176 -2 4325 -15 312 -26 1027 -38 1526 -26 770 19 931 40 1083
142 81 54 143 126 188 217 l38 76 0 2991 0 2990 -34 70 c-50 102 -160 210
-266 259 -44 21 -87 41 -95 46 -13 6 -16 51 -20 281 -5 272 -5 275 -32 331
-51 110 -162 195 -283 217 -73 14 -10616 14 -10685 0z m1474 -1078 c27 -30 41
-82 38 -138 -3 -44 -6 -50 -23 -46 -25 7 -24 -1 6 -31 31 -31 32 -67 1 -102
-32 -38 -89 -39 -117 -3 -29 37 -24 82 12 118 27 27 29 34 18 48 -13 15 -11
16 16 10 36 -7 58 3 51 24 -2 8 -7 26 -10 42 -5 20 -12 27 -31 27 -35 0 -41
19 -14 45 30 29 32 30 53 6z m220 -24 l14 -32 1 37 c1 34 3 37 32 36 18 -1 33
-8 37 -17 6 -13 22 -16 77 -16 l70 0 3 -34 c4 -34 -16 -68 -25 -43 -3 6 -10 9
-16 5 -7 -5 -53 -9 -104 -9 -69 -1 -95 2 -104 12 -10 12 -15 12 -31 -3 -31
-28 -42 -4 -22 48 27 68 44 72 68 16z m379 33 c9 0 17 -6 17 -12 0 -8 14 -13
35 -13 20 0 35 5 35 12 0 22 23 26 37 8 11 -16 26 -19 106 -17 69 1 95 6 103
17 14 19 34 19 34 0 0 -10 10 -15 34 -15 30 0 34 -3 39 -32 3 -18 1 -37 -4
-42 -12 -14 -121 -17 -136 -4 -7 6 -14 20 -14 32 -1 15 -3 12 -8 -9 -6 -30 -7
-30 -74 -31 -37 0 -67 4 -67 9 0 4 -6 5 -12 0 -19 -11 -81 -12 -95 -1 -7 5
-14 5 -18 -2 -11 -17 -53 -11 -68 10 l-14 21 -6 -22 c-3 -11 -10 -18 -16 -14
-12 7 -15 98 -3 109 4 4 23 5 42 2 19 -3 43 -6 53 -6z m-898 -133 c12 -26 48
-38 39 -13 -5 12 0 16 18 16 34 0 40 -10 23 -37 -14 -21 -14 -23 0 -23 8 0 15
-4 15 -10 0 -13 27 -13 35 1 4 5 0 18 -8 27 -23 27 -31 62 -13 62 8 0 18 -4
21 -10 4 -6 13 -5 25 2 11 7 22 9 25 6 9 -8 -40 -96 -71 -129 -23 -24 -25 -59
-3 -59 5 0 9 -11 9 -25 0 -28 -11 -30 -58 -14 -30 10 -31 12 -17 32 17 25 20
70 5 98 -8 14 -17 18 -34 13 -13 -3 -27 -1 -30 5 -4 6 -18 11 -32 11 -20 0
-24 5 -24 29 0 29 7 34 50 38 9 1 20 -8 25 -20z m6719 -24 c0 -13 -1 -1254 -2
-2758 l-2 -2735 -2020 0 -2020 1 0 84 c0 68 -3 85 -15 85 -11 0 -15 -18 -17
-82 l-3 -83 -1468 -3 -1467 -2 2 2477 3 2478 1463 3 1462 2 0 274 c0 210 3
276 13 279 6 3 925 5 2042 4 l2030 -2 -1 -22z m-6028 -45 c3 -5 11 -5 17 0 7
5 32 9 57 8 l44 -1 1 -45 0 -45 -110 0 -109 0 -3 35 c-2 19 -1 40 1 47 5 13
94 14 102 1z m8895 -479 c13 -13 19 -30 17 -49 -2 -20 5 -37 22 -55 18 -19 21
-28 12 -37 -9 -9 -18 -6 -37 12 -18 17 -35 24 -55 22 -58 -6 -92 66 -50 108
26 26 64 26 91 -1z m-1883 -43 c2 -25 7 -44 12 -41 4 3 6 14 3 25 -4 14 1 21
22 26 15 4 31 2 37 -4 9 -9 15 -8 26 0 11 10 17 9 26 -4 12 -16 14 -16 29 -1
25 25 32 8 18 -45 -15 -57 -36 -92 -56 -92 -17 0 -20 21 -5 36 7 7 6 23 -4 50
l-15 39 0 -42 c-1 -30 -5 -43 -15 -43 -8 0 -21 -3 -29 -6 -8 -3 -22 2 -31 11
-9 9 -16 12 -16 7 0 -20 -61 -19 -86 0 -13 11 -24 15 -24 9 0 -6 -9 -15 -21
-21 -16 -9 -26 -8 -45 5 -21 13 -25 23 -22 53 2 30 8 38 32 47 24 8 31 6 46
-12 17 -21 17 -21 33 -2 9 10 23 19 31 19 7 0 16 9 19 21 10 37 32 15 35 -35z
m2390 -2558 l-3 -2293 -1590 -3 c-874 -1 -1600 0 -1612 3 l-23 5 0 2274 c0
1251 3 2281 6 2290 6 15 157 16 1615 16 l1609 0 -2 -2292z m-1575 -2439 c24
-11 47 -47 47 -74 0 -8 -11 -26 -23 -41 -43 -50 -116 -29 -132 38 -6 22 -1 33
23 58 33 33 48 36 85 19z m932 -69 l0 -65 -70 0 -70 0 -3 54 c-5 80 -3 82 75
79 l68 -3 0 -65z m-5220 -15 c14 -13 25 -36 25 -50 0 -34 -42 -75 -76 -75 -68
0 -100 88 -48 129 35 28 69 26 99 -4z m1433 -49 c4 -68 -3 -76 -65 -76 -69 0
-73 4 -73 77 l0 64 68 -3 67 -3 3 -59z m3630 -153 c-438 -2 -1158 -2 -1600 0
-442 1 -83 2 797 2 880 0 1241 -1 803 -2z"/>
</g>
</svg>
